<svg width="171" height="45" viewBox="0 0 171 45" fill="none" xmlns="http://www.w3.org/2000/svg">
<path d="M68.3533 30.1829L68.1978 36.3763L66.6426 30.5749L61.5102 12.7787C58.7108 3.37108 52.412 0 43.9359 0H0V45H41.3697C45.1023 45 48.1351 44.6864 50.6235 43.9808L45.8022 29.0854C44.9468 32.4564 42.5362 33.4756 38.0259 33.4756H13.6862V11.2108H40.4366C45.3356 11.2108 48.9905 14.1899 50.3902 18.5017L58.9441 45H74.6521L80.8731 26.8118L74.8854 9.01568L68.3533 30.1829Z" fill="#0476D9"/>
<path d="M162.835 22.3432V22.1864C166.645 21.0888 169.445 19.5993 169.445 11.838C169.445 2.97909 164.079 0 153.192 0H125.898H122.243H112.523L109.412 10.8188H122.398H151.715C154.281 10.8188 155.759 11.7596 155.759 14.3467C155.759 16.9338 154.281 17.7962 151.715 17.7962H128.386L125.353 27.1254H151.948C154.903 27.1254 156.847 27.831 156.847 30.8885C156.847 33.4756 154.903 34.1812 151.948 34.1812H123.098L119.599 45H157.314C165.168 45 170.922 42.9617 170.922 33.0836C171 26.3415 168.823 23.0488 162.835 22.3432Z" fill="#0476D9"/>
<path d="M108.246 14.9739L103.969 29.7125L103.813 36.3763L102.88 33.0836L91.5267 0H78.8514L95.6481 45H111.434L121.076 14.9739H108.246Z" fill="#05AFF2"/>
</svg>
