<svg width="142" height="45" viewBox="0 0 142 45" fill="none" xmlns="http://www.w3.org/2000/svg">
<path fill-rule="evenodd" clip-rule="evenodd" d="M62.4 11.1C63.6 10.7 65.2999 10.5 67.3999 10.5H123.6C126.105 10.8854 126.104 11.8278 126.1 14.0429L126.1 14.3H139.5V13C139.5 5.3 139.3 0 129.3 0H107.6H64.3C61.5 0 58.9 0.2 56.7 0.6C59.7999 3 61.7 6.5 62.4 11.1ZM102.2 31.1C96.2 30.9 91.9 30.2 88.8 28.7L87.8 28.2C84.7 26.4 83.1 23.5 82.4 19.1H72V28.2H80.5C82.1 28.2 83.6 28.6 85 29.3H85.1C87.3 30.4 86.8 33.8 84.3 34.1C83.5 34.2 82.6 34.2 81.7 34.2H67.4C60.6 34.2 58.9 32.6 58.9 25.1V22.9L59 15.5C59 4.7 54 0.5 40.6 0.5H0V44.3H40.6C42.8 44.3 44.8 44.2 46.6 43.9C43.9 41.5 41.9 37.9 41.3 32.6C40.2 32.9 38.9 33 37.4 33H13.4V11.4H37.3C41.9 11.4 44.3 12.5 45 16.2V29C45 41.8 52.2 44.9 64.3 44.9H80.5C95.6 44.9 102.2 44.3 102.2 31.7V31.1ZM105.8 17C108.2 17.1 111.3 17.1 115.6 17.1C136.5 17 141.3 18.3 141.4 31.2C141.4 43 137.4 44.9 119.5 44.9H103.2H101.5C103.9 42.8 105.5 39.8 106 35.1H121.7C124.6 35.1 127.5 34.8 127.5 31.4C127.5 27.5 125.9 27.3 108.6 27.3C90.3999 27.3 86.7 25.3 86.2 17H105.8Z" fill="#0476D9"/>
</svg>
