<svg width="33" height="19" viewBox="0 0 33 19" fill="none" xmlns="http://www.w3.org/2000/svg">
<path d="M31.0666 0H1.93329C1.23373 0 0.666626 0.567106 0.666626 1.26667V17.7333C0.666626 18.4329 1.23373 19 1.93329 19H31.0666C31.7662 19 32.3333 18.4329 32.3333 17.7333V1.26667C32.3333 0.567106 31.7662 0 31.0666 0Z" fill="#0072CE"/>
<path fill-rule="evenodd" clip-rule="evenodd" d="M27.3956 10.9773H26.2768C26.1651 10.9773 26.0909 10.9815 26.0284 11.0236C25.9636 11.0651 25.9387 11.1266 25.9387 11.2079C25.9387 11.3045 25.9934 11.3702 26.0729 11.3986C26.1377 11.4211 26.2072 11.4277 26.3095 11.4277L26.6422 11.4366C26.9779 11.4448 27.202 11.5024 27.3387 11.6427C27.3635 11.6622 27.3785 11.6842 27.3956 11.7061V10.9773ZM27.3956 12.6658C27.2465 12.8832 26.9559 12.9934 26.5626 12.9934H25.3771V12.4443H26.5578C26.6749 12.4443 26.7568 12.4289 26.8062 12.3808C26.8489 12.3412 26.8788 12.2837 26.8788 12.2138C26.8788 12.1392 26.8489 12.08 26.8038 12.0444C26.7592 12.0054 26.6944 11.9876 26.5875 11.9876C26.0111 11.9681 25.292 12.0054 25.292 11.1949C25.292 10.8234 25.5286 10.4324 26.1728 10.4324H27.3955V9.92285H26.2594C25.9166 9.92285 25.6676 10.0047 25.4912 10.132V9.92285H23.8108C23.542 9.92285 23.2266 9.98927 23.0774 10.132V9.92285H20.0767V10.132C19.8379 9.96023 19.4349 9.92285 19.2489 9.92285H17.2696V10.132C17.0806 9.94957 16.6605 9.92285 16.4044 9.92285H14.1892L13.6823 10.4698L13.2075 9.92285H9.89844V13.4964H13.1452L13.6675 12.9408L14.1596 13.4964L16.1609 13.4982V12.6576H16.3577C16.6232 12.6617 16.9364 12.651 17.2127 12.5319V13.4964H18.8634V12.565H18.9431C19.0447 12.565 19.0547 12.5691 19.0547 12.6704V13.4963H24.0693C24.3877 13.4963 24.7205 13.415 24.9048 13.2676V13.4963H26.4954C26.8264 13.4963 27.1497 13.45 27.3956 13.3315V12.6658ZM24.9469 11.6427C25.0664 11.766 25.1305 11.9217 25.1305 12.1853C25.1305 12.7363 24.7853 12.9934 24.1662 12.9934H22.9705V12.4443H24.1614C24.2778 12.4443 24.3604 12.4289 24.4121 12.3808C24.4543 12.3412 24.4846 12.2837 24.4846 12.2138C24.4846 12.1392 24.4519 12.08 24.4097 12.0444C24.3628 12.0054 24.298 11.9876 24.1911 11.9876C23.617 11.9681 22.8981 12.0054 22.8981 11.1949C22.8981 10.8234 23.1322 10.4324 23.7758 10.4324H25.0064V10.9775H23.8803C23.7687 10.9775 23.6961 10.9817 23.6344 11.0238C23.5671 11.0652 23.5422 11.1268 23.5422 11.208C23.5422 11.3046 23.5993 11.3704 23.6765 11.3988C23.7413 11.4213 23.8108 11.4278 23.9154 11.4278L24.2459 11.4367C24.5791 11.4448 24.8079 11.5023 24.9469 11.6427ZM19.4077 11.4845C19.3256 11.5331 19.224 11.5373 19.1046 11.5373H18.3589V10.9621H19.1147C19.224 10.9621 19.3334 10.9644 19.4077 11.0083C19.4873 11.0498 19.5348 11.1291 19.5348 11.2387C19.5348 11.3483 19.4873 11.4366 19.4077 11.4845ZM19.7784 11.8032C19.9151 11.8535 20.0268 11.9436 20.0792 12.0183C20.1658 12.1433 20.1784 12.26 20.1809 12.4857V12.9934H19.5646V12.673C19.5646 12.5189 19.5794 12.2908 19.4653 12.1717C19.3756 12.08 19.2389 12.058 19.015 12.058H18.3589V12.9934H17.7421V10.4323H19.1594C19.4701 10.4323 19.6965 10.446 19.898 10.5532C20.0917 10.6699 20.2135 10.8298 20.2135 11.1219C20.2135 11.5307 19.94 11.7393 19.7784 11.8032ZM20.5539 10.4323H22.6027V10.962H21.1653V11.4276H22.5676V11.9501H21.1653V12.4597L22.6027 12.462V12.9934H20.5539V10.4323ZM16.4122 11.6143H15.6189V10.9621H16.4193C16.641 10.9621 16.7948 11.0521 16.7948 11.2761C16.7948 11.4976 16.6481 11.6143 16.4122 11.6143ZM15.0075 12.7605L14.065 11.7173L15.0075 10.7072V12.7605ZM12.5735 12.4597H11.0643V11.9501H12.412V11.4276H11.0643V10.962H12.6033L13.2747 11.7083L12.5735 12.4597ZM17.4539 11.2761C17.4539 11.9875 16.9215 12.1344 16.3849 12.1344H15.6189V12.9934H14.4258L13.6699 12.1456L12.8843 12.9934H10.4528V10.4323H12.9217L13.677 11.2718L14.4578 10.4323H16.4193C16.9065 10.4323 17.4539 10.5668 17.4539 11.2761Z" fill="white"/>
<path fill-rule="evenodd" clip-rule="evenodd" d="M7.52402 7.48092L7.10386 6.46017L6.6861 7.48092H7.52402ZM16.7801 7.07446C16.6957 7.1255 16.5959 7.1272 16.4764 7.1272H15.7307V6.55848H16.4865C16.5935 6.55848 16.7051 6.56327 16.7777 6.60467C16.8573 6.64197 16.9066 6.72136 16.9066 6.83103C16.9066 6.94293 16.8597 7.03298 16.7801 7.07446ZM22.1001 7.48092L21.6752 6.46017L21.2528 7.48092H22.1001ZM12.1833 8.58577H11.5539L11.5516 6.58042L10.6615 8.58577H10.1225L9.23006 6.57864V8.58577H7.98151L7.74564 8.01465H6.4675L6.22922 8.58577H5.5625L6.66178 6.02529H7.57383L8.61787 8.44953V6.02529H9.61977L10.4231 7.76227L11.1611 6.02529H12.1832V8.58577H12.1833ZM14.6914 8.58577H12.6407V6.02529H14.6914V6.55848H13.2546V7.02001H14.657V7.54486H13.2546V8.0562H14.6914V8.58577ZM17.5828 6.71487C17.5828 7.12311 17.3095 7.33403 17.1502 7.39735C17.2846 7.44833 17.3993 7.53838 17.4539 7.61298C17.5406 7.74033 17.5555 7.85409 17.5555 8.08277V8.58577H16.9364L16.9341 8.26287C16.9341 8.1088 16.9488 7.88722 16.8371 7.76404C16.7474 7.67399 16.6107 7.65445 16.3897 7.65445H15.7307V8.58577H15.1169V6.02529H16.5288C16.8426 6.02529 17.0737 6.03355 17.2722 6.14793C17.4664 6.26231 17.5828 6.42928 17.5828 6.71487ZM18.5652 8.58577H17.9388V6.02529H18.5652V8.58577ZM25.8318 8.58577H24.9619L23.7983 6.66398V8.58577H22.5482L22.3093 8.01465H21.0341L20.8023 8.58577H20.084C19.7856 8.58577 19.4078 8.51997 19.1939 8.30257C18.9781 8.08516 18.8659 7.79069 18.8659 7.32507C18.8659 6.94533 18.933 6.59818 19.1968 6.32386C19.3953 6.11951 19.7061 6.02529 20.1291 6.02529H20.7234V6.57393H20.1416C19.9175 6.57393 19.791 6.60714 19.6692 6.72561C19.5645 6.83342 19.4927 7.03723 19.4927 7.3056C19.4927 7.57993 19.5474 7.77771 19.6615 7.90692C19.756 8.00824 19.9278 8.03898 20.0893 8.03898H20.365L21.2302 6.02537H22.15L23.1893 8.44722V6.02537H24.124L25.2031 7.8086V6.02537H25.8318V8.58577ZM5.55538 9.08869H6.60422L6.84072 8.51997H7.37018L7.60605 9.08869H9.66974V8.65389L9.85394 9.09054H10.9253L11.1095 8.6474V9.08869H16.2381L16.2357 8.15513H16.335C16.4044 8.15753 16.4247 8.16394 16.4247 8.27832V9.08869H19.0773V8.87136C19.2912 8.98566 19.624 9.08869 20.0619 9.08869H21.1779L21.4167 8.51997H21.9461L22.1797 9.08869H24.3301V8.54847L24.6558 9.08869H26.379V5.51758H24.6736V5.93933L24.4348 5.51758H22.6848V5.93933L22.4655 5.51758H20.1017C19.7061 5.51758 19.3583 5.57264 19.0773 5.7261V5.51758H17.4461V5.7261C17.2673 5.56793 17.0237 5.51758 16.7528 5.51758H10.7933L10.3935 6.43994L9.98284 5.51758H8.10576V5.93933L7.89956 5.51758H6.29871L5.5553 7.21548V9.08869H5.55538Z" fill="white"/>
</svg>
