<svg width="16" height="16" viewBox="0 0 16 16" fill="none" xmlns="http://www.w3.org/2000/svg">
<path d="M0.00710288 7.99604C-0.0529909 4.45794 2.41837 0.98716 6.43714 0.156865C7.57893 -0.082499 8.72822 -0.0376182 9.86249 0.224186C10.2982 0.321428 10.5611 0.665514 10.531 1.09188C10.5085 1.48085 10.2155 1.79501 9.81742 1.83241C9.65967 1.84737 9.49442 1.81745 9.33667 1.78005C5.71602 1.01708 2.36579 3.32096 1.69724 6.79174C1.03621 10.2102 3.17705 13.3967 6.4747 14.1896C10.0277 15.0423 13.5207 12.7983 14.2493 9.23026C14.3094 8.92358 14.3245 8.60941 14.3545 8.30273C14.362 8.25037 14.3545 8.20549 14.3545 8.15313C14.3695 7.55471 14.7151 7.15827 15.2108 7.18071C15.6991 7.20315 16.0296 7.59212 16.0071 8.16809C15.9395 10.0606 15.316 11.7511 14.0691 13.1947C12.762 14.7057 11.1019 15.6333 9.11883 15.91C6.85029 16.2317 4.79959 15.6557 3.00428 14.242C1.4118 12.9778 0.465318 11.3247 0.0972436 9.33499C0.059685 9.1405 0.0296381 8.93854 0.0146146 8.74406C-0.00792057 8.48973 0.00710288 8.24289 0.00710288 7.99604Z" fill="#82D100"/>
<path d="M7.96233 9.2079C9.14168 7.84652 10.2835 6.53001 11.4328 5.20603C11.9135 4.6525 12.3943 4.09149 12.8825 3.53796C13.1004 3.28364 13.3783 3.15648 13.7163 3.24624C14.0544 3.32852 14.2497 3.55292 14.3323 3.88205C14.3999 4.17377 14.2722 4.42062 14.0844 4.63006C13.5586 5.22847 13.0328 5.82688 12.4994 6.43277C11.3051 7.79416 10.1107 9.15554 8.91633 10.5094C8.79614 10.6516 8.66844 10.7937 8.54074 10.9283C8.18017 11.2874 7.75952 11.3023 7.37642 10.9583C7.25623 10.8535 7.14355 10.7338 7.03088 10.6142C6.39989 9.98583 5.77642 9.36498 5.14543 8.73665C5.04778 8.63941 4.95012 8.54217 4.87501 8.42997C4.66468 8.10084 4.70224 7.71188 4.97266 7.43511C5.24308 7.15087 5.66374 7.0985 6.00177 7.31543C6.11444 7.39023 6.2121 7.48747 6.30975 7.58471C6.8506 8.1158 7.39144 8.64689 7.96233 9.2079Z" fill="#82D100"/>
</svg>
