<svg width="32" height="19" viewBox="0 0 32 19" fill="none" xmlns="http://www.w3.org/2000/svg">
<path d="M30.4001 0H1.26655C0.566987 0 -0.00012207 0.56711 -0.00012207 1.26667V17.7334C-0.00012207 18.433 0.566987 19.0001 1.26655 19.0001H30.4001C31.0996 19.0001 31.6667 18.433 31.6667 17.7334V1.26667C31.6667 0.56711 31.0996 0 30.4001 0Z" fill="white"/>
<path d="M1.26655 0.25H30.4001C30.9616 0.25 31.4167 0.705181 31.4167 1.26667V17.7334C31.4167 18.2949 30.9616 18.7501 30.4001 18.7501H1.26655C0.705059 18.7501 0.249878 18.2949 0.249878 17.7334V1.26667C0.249878 0.705181 0.705059 0.25 1.26655 0.25Z" fill="white" stroke="#E6772F" stroke-width="0.5"/>
<path d="M7.63647 19.0004H30.4002C31.0997 19.0004 31.6667 18.4344 31.6667 17.7354V10.6714C31.6667 10.6714 23.1799 16.4252 7.63647 19.0004Z" fill="white"/>
<path d="M7.63647 19.0004H30.4002C31.0997 19.0004 31.6667 18.4344 31.6667 17.7354V10.6714C31.6667 10.6714 23.1799 16.4252 7.63647 19.0004Z" fill="#E7772F"/>
<path fill-rule="evenodd" clip-rule="evenodd" d="M5.79136 9.44384C5.55363 9.6471 5.251 9.73599 4.76706 9.73599H4.56625V7.31031H4.76706C5.251 7.31031 5.54202 7.39321 5.79136 7.60659C6.04874 7.82709 6.2034 8.16725 6.2034 8.51909C6.2034 8.87263 6.04874 9.2249 5.79136 9.44384ZM4.91696 6.68896H3.81824V10.3576H4.91027C5.49141 10.3576 5.91089 10.2253 6.27857 9.93327C6.71533 9.58742 6.97449 9.06522 6.97449 8.52422C6.97449 7.44121 6.12897 6.68896 4.91696 6.68896Z" fill="#1A1918"/>
<path fill-rule="evenodd" clip-rule="evenodd" d="M7.31934 6.68896H8.06437V10.3576H7.31934V6.68896Z" fill="#1A1918"/>
<path fill-rule="evenodd" clip-rule="evenodd" d="M9.89399 8.0951C9.44429 7.93728 9.31284 7.83215 9.31284 7.63387C9.31284 7.4034 9.54774 7.22862 9.87077 7.22862C10.0947 7.22862 10.2791 7.31437 10.4756 7.5239L10.8645 7.03561C10.5432 6.76496 10.1585 6.62793 9.73918 6.62793C9.06068 6.62793 8.54354 7.07962 8.54354 7.67689C8.54354 8.18399 8.78395 8.44124 9.48552 8.68554C9.77877 8.78311 9.92778 8.84977 10.0033 8.89493C10.1527 8.98738 10.2271 9.11985 10.2271 9.27298C10.2271 9.5714 9.98003 9.79076 9.64599 9.79076C9.29037 9.79076 9.00262 9.6204 8.83039 9.30047L8.34839 9.74717C8.693 10.2303 9.10608 10.4463 9.67517 10.4463C10.4513 10.4463 10.9982 9.94902 10.9982 9.24078C10.9982 8.65719 10.7446 8.39267 9.89399 8.0951Z" fill="#1A1918"/>
<path fill-rule="evenodd" clip-rule="evenodd" d="M11.2332 8.52411C11.2332 9.60298 12.1181 10.439 13.2573 10.439C13.5786 10.439 13.854 10.3783 14.1931 10.2252V9.38205C13.8934 9.67022 13.6304 9.78389 13.2901 9.78389C12.5373 9.78389 12.0041 9.26268 12.0041 8.51898C12.0041 7.81631 12.5546 7.25963 13.2573 7.25963C13.6119 7.25963 13.8828 7.37986 14.1931 7.67229V6.83016C13.8654 6.67162 13.5966 6.60596 13.2727 6.60596C12.14 6.60596 11.2332 7.45834 11.2332 8.52411Z" fill="#1A1918"/>
<path fill-rule="evenodd" clip-rule="evenodd" d="M20.2504 9.15197L19.228 6.68896H18.4128L20.0381 10.4502H20.439L22.0958 6.68896H21.287L20.2504 9.15197Z" fill="#1A1918"/>
<path fill-rule="evenodd" clip-rule="evenodd" d="M22.4351 10.3576H24.5553V9.73599H23.1831V8.74572H24.5032V8.12423H23.1831V7.31031H24.5553V6.68896H22.4351V10.3576Z" fill="#1A1918"/>
<path fill-rule="evenodd" clip-rule="evenodd" d="M26.0155 8.37593H25.7985V7.26629H26.0277C26.4948 7.26629 26.7451 7.45389 26.7451 7.81128C26.7451 8.1785 26.4948 8.37593 26.0155 8.37593ZM27.515 7.7714C27.515 7.08439 27.0225 6.68896 26.1593 6.68896H25.0488V10.3576H25.7985V8.88261H25.8957L26.9286 10.3576H27.8484L26.6422 8.81138C27.2059 8.70113 27.515 8.33277 27.515 7.7714Z" fill="#1A1918"/>
<path fill-rule="evenodd" clip-rule="evenodd" d="M18.5182 8.53272C18.5182 9.58894 17.6239 10.445 16.5197 10.445C15.4157 10.445 14.5212 9.58894 14.5212 8.53272C14.5212 7.47635 15.4157 6.62012 16.5197 6.62012C17.6239 6.62012 18.5182 7.47635 18.5182 8.53272Z" fill="#E7772F"/>
</svg>
