<svg width="22" height="15" viewBox="0 0 22 15" fill="none" xmlns="http://www.w3.org/2000/svg">
<g clip-path="url(#clip0_549_214)">
<path d="M0.237183 1.26106C0.758959 0.39823 1.48945 0 2.44762 0C8.16819 0 13.8888 0 19.5998 0C20.5296 0 21.2221 0.426675 21.7154 1.26106C21.3929 1.51707 21.0798 1.77307 20.7572 2.0196C18.7745 3.5177 16.7917 5.00632 14.7995 6.50442C13.9836 7.12073 13.1678 7.73704 12.3519 8.35335C11.517 8.97914 10.4545 8.9981 9.59122 8.35335C8.57612 7.58534 7.56103 6.81732 6.54594 6.0493C4.65805 4.62705 2.77966 3.21429 0.891775 1.79204C0.673578 1.63085 0.474354 1.4507 0.237183 1.26106Z" fill="white"/>
<path d="M14.7331 7.9174C14.8754 8.01222 14.9988 8.07859 15.1031 8.16392C15.7957 8.78023 16.4882 9.40602 17.1807 10.0318C17.9017 10.6671 18.6227 11.3024 19.3437 11.9376C19.5999 12.1652 19.856 12.4022 20.1217 12.6298C20.615 13.0754 21.0988 13.5116 21.6016 13.9667C21.0704 14.6589 20.4063 15.0002 19.5525 15.0002C13.8983 14.9907 8.24413 14.9907 2.58997 15.0002C2.05871 15.0002 1.5559 14.9338 1.09105 14.6494C0.815928 14.4882 0.588244 14.2796 0.41748 13.9762C0.493375 13.8909 0.550296 13.796 0.626191 13.7202C2.79868 11.7859 4.98066 9.85166 7.1816 7.89844C7.40929 8.06911 7.618 8.21133 7.81722 8.35356C8.1967 8.63801 8.56669 8.92246 8.94616 9.20691C10.1984 10.1646 12.0294 10.0792 13.2722 9.03624C13.737 8.65697 14.2398 8.30615 14.7331 7.9174Z" fill="white"/>
<path d="M15.6818 7.2154C17.7689 5.63196 19.818 4.06748 21.9051 2.52197C22.0095 2.91072 22.038 11.7761 21.9526 12.7811C21.7439 12.62 21.5446 12.4777 21.3644 12.3165C20.6339 11.6623 19.9129 10.9986 19.1824 10.3538C18.1768 9.46255 17.1712 8.58076 16.1656 7.69896C16.0138 7.54726 15.862 7.39555 15.6818 7.2154Z" fill="white"/>
<path d="M0 12.6863C0 9.32033 0 5.95434 0 2.52197C0.616645 2.84435 1.07201 3.30895 1.59379 3.66925C2.13454 4.03904 2.64683 4.45623 3.17809 4.85446C3.69038 5.24321 4.20267 5.63196 4.71496 6.02071C5.22725 6.40946 5.73006 6.79821 6.28029 7.22488C4.19319 9.07381 2.14403 10.9038 0.0948685 12.7337C0.0664079 12.7148 0.0284605 12.7053 0 12.6863Z" fill="white"/>
</g>
<defs>
<clipPath id="clip0_549_214">
<rect width="22" height="15" fill="white"/>
</clipPath>
</defs>
</svg>
