<svg width="18" height="18" viewBox="0 0 18 18" fill="none" xmlns="http://www.w3.org/2000/svg">
<g clip-path="url(#clip0_549_220)">
<path d="M4.961 8.15298C6.07488 10.3527 7.73167 11.972 9.90328 13.114C10.259 12.8425 10.6053 12.5898 10.9516 12.3277C11.2886 12.075 11.6069 11.8035 11.9438 11.5508C12.4025 11.2045 12.908 11.1577 13.4415 11.3168C14.4524 11.6163 15.4914 11.8222 16.5491 11.8035C17.3167 11.7848 18 12.4494 17.9906 13.2544C17.9719 14.3589 17.9719 15.4728 17.9906 16.5773C18 17.3729 17.298 18.0188 16.5772 18.0095C15.7535 18.0001 14.9392 17.9533 14.1154 17.841C12.5148 17.6163 10.9984 17.1389 9.54758 16.4744C8.61154 16.0531 7.73167 15.5196 6.8986 14.9205C6.0468 14.3121 5.26989 13.6194 4.54914 12.8612C3.33229 11.5695 2.34945 10.128 1.59126 8.52739C0.964119 7.21694 0.524181 5.85033 0.271451 4.42755C0.102964 3.44471 0 2.46187 0 1.46967C0 0.674042 0.655226 -0.00926532 1.4883 9.50484e-05C2.59282 0.0188158 3.70671 9.50484e-05 4.81123 9.50484e-05C5.61622 9.50484e-05 6.28081 0.62724 6.28081 1.44159C6.28081 2.55548 6.45866 3.63192 6.79563 4.68964C6.93604 5.15766 6.84243 5.58824 6.56162 5.97201C6.11232 6.5898 5.65367 7.18886 5.20437 7.80665C5.12012 7.90961 5.04524 8.03129 4.961 8.15298Z" fill="white"/>
</g>
<defs>
<clipPath id="clip0_549_220">
<rect width="18" height="18" fill="white"/>
</clipPath>
</defs>
</svg>
