<svg width="32" height="19" viewBox="0 0 32 19" fill="none" xmlns="http://www.w3.org/2000/svg">
<path d="M30.7333 0H1.59992C0.900358 0 0.333252 0.567106 0.333252 1.26667V17.7333C0.333252 18.4329 0.900358 19 1.59992 19H30.7333C31.4328 19 31.9999 18.4329 31.9999 17.7333V1.26667C31.9999 0.567106 31.4328 0 30.7333 0Z" fill="white"/>
<path fill-rule="evenodd" clip-rule="evenodd" d="M18.1073 9.65394C18.1073 13.0671 15.3407 15.8336 11.9277 15.8336C8.5146 15.8336 5.7478 13.0671 5.7478 9.65394C5.7478 6.24092 8.5146 3.47412 11.9277 3.47412C15.3407 3.47412 18.1073 6.24092 18.1073 9.65394Z" fill="#CC0000"/>
<path fill-rule="evenodd" clip-rule="evenodd" d="M20.2244 3.47412C18.6273 3.47412 17.1725 4.07991 16.0756 5.07369C15.8525 5.27624 15.6441 5.495 15.4519 5.72792H16.7004C16.8709 5.93554 17.0281 6.15381 17.1715 6.38243H14.9806C14.8496 6.5925 14.7304 6.81077 14.6246 7.03695H17.5274C17.6266 7.24877 17.7139 7.46694 17.7891 7.69117H14.3628C14.2916 7.90426 14.2314 8.12263 14.1833 8.3453H17.9684C18.0591 8.76719 18.1073 9.2049 18.1073 9.65394C18.1073 10.34 17.9955 11.0004 17.7891 11.6171H14.3628C14.438 11.8411 14.5254 12.0596 14.6244 12.2717H17.5274C17.4214 12.4973 17.3028 12.7158 17.171 12.9261H14.9806C15.1235 13.1541 15.2809 13.3726 15.4519 13.58H16.7C16.5081 13.8131 16.2996 14.0318 16.0758 14.2344C17.1726 15.2282 18.6273 15.8336 20.2244 15.8336C23.6373 15.8336 26.404 13.0671 26.404 9.65394C26.404 6.24121 23.6373 3.47412 20.2244 3.47412Z" fill="#FF9900"/>
<path fill-rule="evenodd" clip-rule="evenodd" d="M10.4845 10.3301C10.4141 10.3221 10.3831 10.3196 10.3347 10.3196C9.95443 10.3196 9.76213 10.4501 9.76213 10.7078C9.76213 10.8665 9.85598 10.9674 10.0025 10.9674C10.2758 10.9674 10.4728 10.7072 10.4845 10.3301ZM10.9725 11.466H10.4165L10.4292 11.2018C10.2597 11.4104 10.0334 11.5101 9.7261 11.5101C9.36261 11.5101 9.11328 11.2263 9.11328 10.8138C9.11328 10.193 9.54679 9.83099 10.2911 9.83099C10.3673 9.83099 10.4648 9.83802 10.5646 9.85062C10.5853 9.76644 10.5908 9.7307 10.5908 9.68528C10.5908 9.51653 10.474 9.45324 10.1606 9.45324C9.83235 9.44992 9.56164 9.53167 9.4504 9.56819C9.45743 9.52581 9.54347 8.99483 9.54347 8.99483C9.87767 8.89658 10.0982 8.85986 10.3463 8.85986C10.9225 8.85986 11.2277 9.11847 11.227 9.60735C11.2282 9.73851 11.2064 9.89975 11.1727 10.1124C11.1145 10.4816 10.9895 11.2733 10.9725 11.466Z" fill="#000066"/>
<path fill-rule="evenodd" clip-rule="evenodd" d="M8.83255 11.4661H8.16152L8.54611 9.05667L7.68778 11.4661H7.23063L7.17409 9.07014L6.77016 11.4661H6.14221L6.66674 8.33154H7.63152L7.68983 10.0861L8.27842 8.33154H9.35141L8.83255 11.4661Z" fill="#000066"/>
<path fill-rule="evenodd" clip-rule="evenodd" d="M21.0533 10.3301C20.9829 10.3221 20.9523 10.3196 20.904 10.3196C20.5234 10.3196 20.3313 10.4501 20.3313 10.7078C20.3313 10.8665 20.4248 10.9674 20.5717 10.9674C20.8448 10.9674 21.0419 10.7072 21.0533 10.3301ZM21.5416 11.466H20.9858L20.9984 11.2018C20.8288 11.4104 20.6026 11.5101 20.2955 11.5101C19.9315 11.5101 19.6825 11.2263 19.6825 10.8138C19.6825 10.193 20.1162 9.83099 20.8603 9.83099C20.9364 9.83099 21.0337 9.83802 21.1336 9.85062C21.1544 9.76644 21.1598 9.7307 21.1598 9.68528C21.1598 9.51653 21.043 9.45324 20.7296 9.45324C20.4014 9.44992 20.1308 9.53167 20.0191 9.56819C20.0266 9.52581 20.1128 8.99483 20.1128 8.99483C20.4468 8.89658 20.6675 8.85986 20.9153 8.85986C21.4918 8.85986 21.7966 9.11847 21.7961 9.60735C21.7972 9.73851 21.7756 9.89975 21.7418 10.1124C21.6837 10.4816 21.5584 11.2733 21.5416 11.466Z" fill="#000066"/>
<path fill-rule="evenodd" clip-rule="evenodd" d="M13.9541 11.4275C13.7704 11.4854 13.6273 11.5104 13.472 11.5104C13.1292 11.5104 12.9419 11.3133 12.9419 10.9503C12.9372 10.8376 12.9913 10.5412 13.0338 10.2709C13.0727 10.0327 13.3249 8.53125 13.3249 8.53125H13.9916L13.9138 8.9171H14.3166L14.2257 9.52982H13.8215C13.744 10.0145 13.6336 10.6184 13.6323 10.6985C13.6323 10.83 13.7024 10.8874 13.8621 10.8874C13.9386 10.8874 13.9977 10.8796 14.043 10.8634L13.9541 11.4275Z" fill="#000066"/>
<path fill-rule="evenodd" clip-rule="evenodd" d="M15.9988 11.4066C15.7697 11.4767 15.5489 11.5108 15.3146 11.5101C14.568 11.5091 14.1788 11.1194 14.1788 10.3728C14.1788 9.50149 14.6739 8.85986 15.3461 8.85986C15.8958 8.85986 16.2471 9.21906 16.2471 9.78216C16.2471 9.96938 16.223 10.1518 16.1647 10.4092H14.8368C14.7919 10.7791 15.0285 10.9331 15.4167 10.9331C15.6551 10.9331 15.8705 10.8839 16.1099 10.7728L15.9988 11.4066ZM15.624 9.89545C15.6278 9.84222 15.6946 9.44035 15.3134 9.44035C15.1013 9.44035 14.9493 9.60227 14.8876 9.89545H15.624Z" fill="#000066"/>
<path fill-rule="evenodd" clip-rule="evenodd" d="M11.3749 9.72279C11.3749 10.045 11.5311 10.2673 11.8856 10.4344C12.1572 10.5623 12.1995 10.6001 12.1995 10.7158C12.1995 10.8745 12.0796 10.9466 11.8142 10.9466C11.6139 10.9466 11.4278 10.9151 11.213 10.8457C11.213 10.8457 11.125 11.4078 11.1208 11.4347C11.2733 11.4677 11.4092 11.4984 11.819 11.5101C12.5269 11.5101 12.8538 11.2405 12.8538 10.658C12.8538 10.3078 12.7171 10.1022 12.381 9.9475C12.0998 9.81849 12.0673 9.78959 12.0673 9.67064C12.0673 9.53284 12.1789 9.46242 12.3956 9.46242C12.5273 9.46242 12.7071 9.47649 12.8778 9.50061L12.9732 8.90938C12.7995 8.88174 12.536 8.85986 12.3827 8.85986C11.6323 8.85986 11.3724 9.25177 11.3749 9.72279Z" fill="#000066"/>
<path fill-rule="evenodd" clip-rule="evenodd" d="M19.2616 8.92727C19.4479 8.92727 19.622 8.97571 19.8611 9.09652L19.971 8.41622C19.8724 8.37755 19.5266 8.15088 19.2336 8.15088C18.7847 8.15088 18.4048 8.37393 18.1381 8.74123C17.7487 8.61232 17.5884 8.87288 17.3923 9.13265L17.218 9.17328C17.2312 9.08783 17.2432 9.00296 17.2394 8.91692H16.6229C16.539 9.70611 16.3898 10.5052 16.2731 11.2946L16.2426 11.4661H16.9138C17.0258 10.7382 17.087 10.2722 17.1243 9.95661L17.3771 9.81657C17.4151 9.67584 17.5329 9.62857 17.7701 9.63433C17.7391 9.80055 17.7223 9.97565 17.7223 10.1568C17.7223 10.9909 18.1729 11.5102 18.8948 11.5102C19.0808 11.5102 19.2406 11.4858 19.488 11.4184L19.6056 10.7041C19.3831 10.8134 19.201 10.8648 19.0358 10.8648C18.6458 10.8648 18.4097 10.5768 18.4097 10.1011C18.4097 9.41079 18.7605 8.92727 19.2616 8.92727Z" fill="#000066"/>
<path fill-rule="evenodd" clip-rule="evenodd" d="M24.9417 8.33154L24.7926 9.23714C24.6095 8.99583 24.4124 8.82101 24.1522 8.82101C23.8137 8.82101 23.5056 9.07766 23.3039 9.45561C23.0229 9.39731 22.7326 9.29818 22.7326 9.29818L22.7324 9.30062C22.7547 9.08938 22.7642 8.96086 22.762 8.91692H22.1456C22.0619 9.70611 21.9126 10.5052 21.796 11.2946L21.7651 11.4661H22.4365C22.5272 10.8778 22.5964 10.3887 22.6475 10.0014C22.877 9.794 22.9918 9.61362 23.2232 9.62534C23.1206 9.87359 23.0607 10.1593 23.0607 10.4525C23.0607 11.0896 23.3828 11.5102 23.8707 11.5102C24.1166 11.5102 24.3053 11.4253 24.4893 11.2288L24.4576 11.4659H25.0924L25.6035 8.33154H24.9417ZM24.1027 10.8772C23.8744 10.8772 23.7588 10.7079 23.7588 10.3747C23.7588 9.87359 23.9749 9.5184 24.2791 9.5184C24.5097 9.5184 24.6347 9.6938 24.6347 10.0176C24.6347 10.523 24.4149 10.8772 24.1027 10.8772Z" fill="#000066"/>
<path fill-rule="evenodd" clip-rule="evenodd" d="M9.02556 11.2798H8.35474L8.73922 8.87034L7.88109 11.2798H7.42375L7.3673 8.8843L6.96328 11.2798H6.33533L6.85986 8.14551H7.82464L7.85159 10.0858L8.50259 8.14551H9.54453L9.02556 11.2798Z" fill="white"/>
<path fill-rule="evenodd" clip-rule="evenodd" d="M10.6777 10.1445C10.6073 10.1363 10.5763 10.134 10.528 10.134C10.1477 10.134 9.95527 10.2643 9.95527 10.5218C9.95527 10.6803 10.0492 10.7818 10.1958 10.7818C10.4691 10.7818 10.666 10.5217 10.6777 10.1445ZM11.1656 11.28H10.6098L10.6225 11.016C10.4529 11.2245 10.2267 11.3242 9.91933 11.3242C9.55575 11.3242 9.30652 11.04 9.30652 10.6277C9.30652 10.0068 9.74013 9.64525 10.4844 9.64525C10.5605 9.64525 10.6579 9.65218 10.7578 9.66508C10.7785 9.5807 10.784 9.54486 10.784 9.49925C10.784 9.33059 10.6672 9.26779 10.3538 9.26779C10.0255 9.26389 9.75488 9.34563 9.64354 9.38206C9.65067 9.33987 9.73661 8.80889 9.73661 8.80889C10.0709 8.71084 10.2914 8.67383 10.5396 8.67383C11.1157 8.67383 11.4208 8.93272 11.4203 9.42141C11.4213 9.55238 11.3998 9.71439 11.366 9.92651C11.3077 10.2954 11.1827 11.0876 11.1656 11.28Z" fill="white"/>
<path fill-rule="evenodd" clip-rule="evenodd" d="M20.164 8.23018L20.0541 8.91038C19.8145 8.78997 19.641 8.74124 19.4548 8.74124C18.9539 8.74124 18.6026 9.22534 18.6026 9.91579C18.6026 10.3915 18.8387 10.6789 19.2288 10.6789C19.394 10.6789 19.5765 10.6278 19.7985 10.5182L19.6806 11.2324C19.4336 11.2997 19.2738 11.3243 19.0878 11.3243C18.3654 11.3243 17.9155 10.805 17.9155 9.97107C17.9155 8.85052 18.5375 8.06738 19.4266 8.06738C19.7196 8.06738 20.0656 8.19151 20.164 8.23018Z" fill="white"/>
<path fill-rule="evenodd" clip-rule="evenodd" d="M21.2463 10.1445C21.1763 10.1363 21.1452 10.134 21.0969 10.134C20.7169 10.134 20.5244 10.2643 20.5244 10.5218C20.5244 10.6803 20.6182 10.7818 20.7647 10.7818C21.0379 10.7818 21.235 10.5217 21.2463 10.1445ZM21.7346 11.28H21.1788L21.1914 11.016C21.0218 11.2245 20.7956 11.3242 20.4885 11.3242C20.1245 11.3242 19.8756 11.04 19.8756 10.6277C19.8756 10.0068 20.3088 9.64525 21.0533 9.64525C21.1294 9.64525 21.2266 9.65218 21.3264 9.66508C21.3472 9.5807 21.3527 9.54486 21.3527 9.49925C21.3527 9.33059 21.2362 9.26779 20.9226 9.26779C20.5946 9.26389 20.3241 9.34563 20.2125 9.38206C20.2196 9.33987 20.3056 8.80889 20.3056 8.80889C20.6399 8.71084 20.8602 8.67383 21.1084 8.67383C21.6845 8.67383 21.9898 8.93272 21.9891 9.42141C21.9904 9.55238 21.9687 9.71439 21.9349 9.92651C21.8768 10.2954 21.7518 11.0876 21.7346 11.28Z" fill="white"/>
<path fill-rule="evenodd" clip-rule="evenodd" d="M14.1471 11.2418C13.9636 11.2996 13.8203 11.3247 13.6652 11.3247C13.3222 11.3247 13.1349 11.1275 13.1349 10.7649C13.1302 10.6518 13.1844 10.3559 13.2271 10.0853C13.2657 9.84693 13.518 8.3457 13.518 8.3457H14.1849L14.1068 8.73146H14.4492L14.358 9.34398H14.0146C13.9371 9.82916 13.8267 10.4327 13.8253 10.5128C13.8253 10.6446 13.8957 10.7017 14.0552 10.7017C14.1316 10.7017 14.1907 10.6941 14.2361 10.6775L14.1471 11.2418Z" fill="white"/>
<path fill-rule="evenodd" clip-rule="evenodd" d="M16.1922 11.2211C15.9629 11.2913 15.7417 11.3244 15.5077 11.3242C14.761 11.3237 14.3721 10.9336 14.3721 10.1871C14.3721 9.31545 14.867 8.67383 15.5387 8.67383C16.089 8.67383 16.4401 9.03302 16.4401 9.59681C16.4401 9.78363 16.4157 9.96597 16.3581 10.2235H15.0299C14.9849 10.5933 15.2217 10.7476 15.6095 10.7476C15.8481 10.7476 16.0634 10.6982 16.3031 10.5869L16.1922 11.2211ZM15.8172 9.70941C15.8209 9.65609 15.8879 9.25442 15.5069 9.25442C15.2946 9.25442 15.1425 9.41663 15.0807 9.70941H15.8172Z" fill="white"/>
<path fill-rule="evenodd" clip-rule="evenodd" d="M11.5679 9.53675C11.5679 9.85952 11.7244 10.0814 12.079 10.2487C12.3506 10.3764 12.3926 10.4142 12.3926 10.53C12.3926 10.6889 12.2728 10.7606 12.0073 10.7606C11.8072 10.7606 11.6209 10.7296 11.4061 10.6603C11.4061 10.6603 11.3182 11.2221 11.3141 11.2485C11.4664 11.2819 11.6025 11.3124 12.0121 11.3242C12.7201 11.3242 13.0471 11.0548 13.0471 10.4722C13.0471 10.1218 12.9101 9.91635 12.5741 9.76205C12.2928 9.63265 12.2605 9.60404 12.2605 9.48489C12.2605 9.3471 12.372 9.27619 12.5889 9.27619C12.7204 9.27619 12.9004 9.29084 13.0709 9.31487L13.1664 8.72373C12.9927 8.69629 12.7294 8.67383 12.5759 8.67383C11.8253 8.67383 11.5657 9.06583 11.5679 9.53675Z" fill="white"/>
<path fill-rule="evenodd" clip-rule="evenodd" d="M25.2855 11.2798H24.6509L24.6823 11.0426C24.4982 11.2392 24.3097 11.324 24.0638 11.324C23.5762 11.324 23.2537 10.9039 23.2537 10.2662C23.2537 9.41831 23.7538 8.70363 24.3453 8.70363C24.6055 8.70363 24.8025 8.80989 24.986 9.0513L25.1348 8.14551H25.7964L25.2855 11.2798ZM24.2957 10.6908C24.6083 10.6908 24.8276 10.3368 24.8276 9.8319C24.8276 9.50796 24.7027 9.33198 24.4722 9.33198C24.1679 9.33198 23.9518 9.68726 23.9518 10.1886C23.9518 10.5222 24.0676 10.6908 24.2957 10.6908Z" fill="white"/>
<path fill-rule="evenodd" clip-rule="evenodd" d="M22.339 8.73098C22.2551 9.51997 22.1059 10.319 21.9892 11.1086L21.9586 11.28H22.6296C22.8697 9.72115 22.9274 9.41694 23.304 9.45493C23.3638 9.13588 23.4755 8.85647 23.5586 8.71565C23.2776 8.65705 23.1207 8.81585 22.915 9.11762C22.9314 8.98704 22.961 8.86038 22.9554 8.73098H22.339Z" fill="white"/>
<path fill-rule="evenodd" clip-rule="evenodd" d="M16.8163 8.73098C16.7321 9.51997 16.5826 10.319 16.4661 11.1086L16.4357 11.28H17.1069C17.347 9.72115 17.4046 9.41694 17.7805 9.45493C17.8408 9.13588 17.9526 8.85647 18.0355 8.71565C17.7549 8.65705 17.5976 8.81585 17.3923 9.11762C17.4086 8.98704 17.4383 8.86038 17.4325 8.73098H16.8163Z" fill="white"/>
</svg>
