<svg width="29" height="19" viewBox="0 0 29 19" fill="none" xmlns="http://www.w3.org/2000/svg">
<rect x="0.666748" width="28.2825" height="18.855" rx="1" fill="white"/>
<path d="M12.6517 14.9195L12.8579 13.6233H12.3983H10.23L11.7384 4.04258C11.7424 4.0129 11.7571 3.98568 11.7796 3.96598C11.8033 3.94768 11.8322 3.93737 11.8621 3.93652H15.5212C16.7408 3.93652 17.5775 4.18989 18.0194 4.69072C18.215 4.9008 18.3512 5.15903 18.4142 5.43903C18.4829 5.77931 18.4829 6.12989 18.4142 6.47016V6.76477L18.6204 6.88261C18.7774 6.96086 18.9191 7.06663 19.0388 7.1949C19.2189 7.41232 19.3352 7.67544 19.3746 7.95499C19.4188 8.32043 19.4029 8.69063 19.3275 9.05094C19.2498 9.4886 19.0963 9.90934 18.8738 10.2942C18.694 10.6027 18.4511 10.8698 18.1609 11.0778C17.8688 11.277 17.5435 11.4227 17.2004 11.508C16.8153 11.6051 16.4192 11.6527 16.022 11.6494H15.7333C15.5309 11.6494 15.335 11.7203 15.1794 11.8497C15.0231 11.9815 14.9203 12.1659 14.8907 12.3682V12.4861L14.5313 14.7722V14.8606C14.5355 14.8761 14.5355 14.8923 14.5313 14.9078H14.4959L12.6517 14.9195Z" fill="#253D80"/>
<path d="M18.8149 6.52979L18.7795 6.7478C18.2964 9.22251 16.6407 10.0828 14.5313 10.0828H13.4589C13.2009 10.0825 12.981 10.2699 12.9404 10.5247L12.3924 14.0129L12.2333 15.0027C12.2214 15.082 12.2444 15.1626 12.2963 15.2236C12.3483 15.2846 12.4242 15.3201 12.5044 15.3209H14.4134C14.6398 15.3207 14.8323 15.1557 14.8671 14.932V14.8378L15.2265 12.5575V12.4338C15.2587 12.211 15.4493 12.0455 15.6744 12.0449H15.9866C17.8309 12.0449 19.2804 11.2966 19.6987 9.09878C19.9251 8.34761 19.7854 7.53374 19.3216 6.90099C19.1744 6.75004 19.0032 6.6246 18.8149 6.52979V6.52979Z" fill="#189BD7"/>
<path d="M18.3081 6.32896L18.0842 6.27003L17.8367 6.2229C17.5247 6.17624 17.2094 6.15456 16.894 6.15808H14.0186C13.9514 6.15624 13.8848 6.17038 13.8241 6.19933C13.6875 6.26329 13.5923 6.39175 13.5708 6.54108L12.9816 10.4122V10.5242C13.0222 10.2694 13.2421 10.082 13.5001 10.0823H14.5725C16.6819 10.0823 18.3376 9.22202 18.8207 6.7473L18.8561 6.52929C18.7292 6.46371 18.5971 6.40853 18.4613 6.36431L18.3081 6.32896Z" fill="#242E65"/>
<path d="M13.5708 6.54115C13.5923 6.39182 13.6875 6.26336 13.8242 6.1994C13.8848 6.17045 13.9514 6.15631 14.0186 6.15815H16.894C17.2095 6.15464 17.5247 6.17631 17.8367 6.22297L18.0842 6.27011L18.3081 6.32903L18.4201 6.36438C18.5559 6.4086 18.6879 6.46378 18.8148 6.52936C19.0064 5.79321 18.8308 5.00987 18.3435 4.42585C17.7542 3.80128 16.7879 3.53613 15.527 3.53613H11.8621C11.604 3.53582 11.3841 3.72324 11.3436 3.97805L9.81748 13.6471C9.80382 13.7383 9.83038 13.8309 9.89029 13.901C9.9502 13.9711 10.0376 14.0117 10.1298 14.0124H12.3924L12.9816 10.4123L13.5708 6.54115Z" fill="#253D80"/>
</svg>
