<svg width="32" height="19" viewBox="0 0 32 19" fill="none" xmlns="http://www.w3.org/2000/svg">
<path d="M30.4 0H1.26667C0.567106 0 0 0.567106 0 1.26667V17.7333C0 18.4329 0.567106 19 1.26667 19H30.4C31.0996 19 31.6667 18.4329 31.6667 17.7333V1.26667C31.6667 0.567106 31.0996 0 30.4 0Z" fill="white"/>
<path fill-rule="evenodd" clip-rule="evenodd" d="M11.8812 12.275L12.8549 6.23486H14.4113L13.4377 12.275H11.8812Z" fill="#26337A"/>
<path fill-rule="evenodd" clip-rule="evenodd" d="M19.0832 6.38233C18.7754 6.2611 18.2915 6.12891 17.6886 6.12891C16.1498 6.12891 15.0666 6.94858 15.0577 8.1223C15.0479 8.9905 15.8306 9.47469 16.4207 9.76326C17.0272 10.0591 17.2309 10.2483 17.2285 10.5128C17.2243 10.9174 16.7444 11.1027 16.297 11.1027C15.6738 11.1027 15.3428 11.0115 14.8309 10.786L14.6307 10.6898L14.4131 12.0418C14.776 12.2101 15.4488 12.3561 16.147 12.3638C17.7824 12.3638 18.845 11.554 18.8574 10.3006C18.863 9.61215 18.4483 9.09032 17.5501 8.65947C17.0062 8.37938 16.6724 8.19384 16.6763 7.91036C16.6766 7.65934 16.9583 7.39058 17.5678 7.39058C18.0769 7.38237 18.4455 7.49994 18.7326 7.62268L18.8724 7.69172L19.0832 6.38233Z" fill="#26337A"/>
<path fill-rule="evenodd" clip-rule="evenodd" d="M21.1555 10.1332C21.2845 9.78605 21.7755 8.4449 21.7755 8.4449C21.7664 8.46087 21.9038 8.09505 21.9824 7.86866L22.0874 8.3896C22.0874 8.3896 22.3861 9.83128 22.4476 10.1332H21.1555ZM23.0756 6.24072H21.8728C21.4997 6.24072 21.2205 6.34759 21.057 6.74141L18.7457 12.2768H20.3804C20.3804 12.2768 20.6471 11.5322 20.7077 11.3688C20.886 11.3688 22.4744 11.3719 22.7011 11.3719C22.7477 11.5827 22.8906 12.2768 22.8906 12.2768H24.3352L23.0756 6.24072Z" fill="#26337A"/>
<path fill-rule="evenodd" clip-rule="evenodd" d="M10.5754 6.23975L9.05207 10.3577L8.8889 9.52059C8.60502 8.55614 7.72135 7.51078 6.73291 6.98699L8.12656 12.2695L9.77373 12.2685L12.2247 6.23975H10.5754Z" fill="#26337A"/>
<path fill-rule="evenodd" clip-rule="evenodd" d="M7.63803 6.23535H5.1282L5.10754 6.3605C7.06049 6.86083 8.35265 8.06854 8.88898 9.5203L8.34358 6.74496C8.24948 6.3622 7.97602 6.24873 7.63803 6.23535Z" fill="#ED982D"/>
</svg>
